<svg width="145" height="32" viewBox="0 0 145 32" fill="none" xmlns="http://www.w3.org/2000/svg">
    <path
        d="M72.1664 0.0830078L76.3464 6.17924L83.4324 8.26752L78.9276 14.1253L79.129 21.5164L72.1664 19.0376L65.2037 21.5164L65.4092 14.1253L60.9004 8.26752L67.9905 6.17924L72.1664 0.0830078Z"
        fill="white" />
    <path opacity="0.5"
        d="M102.619 0.0830078L106.795 6.17924L113.885 8.26752L109.38 14.1253L109.581 21.5164L102.619 19.0376L95.656 21.5164L95.8574 14.1253L91.3525 8.26752L98.4426 6.17924L102.619 0.0830078Z"
        fill="white" />
    <path
        d="M11.2661 0.0830078L15.4461 6.17924L22.532 8.26752L18.0273 14.1253L18.2287 21.5164L11.2661 19.0376L4.30345 21.5164L4.50484 14.1253L0 8.26752L7.09006 6.17924L11.2661 0.0830078Z"
        fill="white" />
    <path
        d="M41.7181 0.0830078L45.8941 6.17924L52.9842 8.26752L48.4753 14.1253L48.6808 21.5164L41.7181 19.0376L34.7555 21.5164L34.9569 14.1253L30.4521 8.26752L37.5381 6.17924L41.7181 0.0830078Z"
        fill="white" />
    <path opacity="0.5"
        d="M133.071 0.0830078L137.247 6.17924L144.337 8.26752L139.828 14.1253L140.034 21.5164L133.071 19.0376L126.108 21.5164L126.31 14.1253L121.801 8.26752L128.891 6.17924L133.071 0.0830078Z"
        fill="white" />
</svg>