<svg width="42" height="35" viewBox="0 0 42 35" fill="none" xmlns="http://www.w3.org/2000/svg">
<path d="M0.674805 34.4589V25.1892C0.674805 20.3304 1.2611 16.3444 2.43387 13.2312C3.64169 10.07 5.72637 7.31911 8.44301 5.3016C11.2522 3.13808 14.5223 1.65122 17.9992 0.956543V8.35584C15.4837 9.8083 14.0562 11.7472 13.7164 14.1726H17.9992V34.4425L0.674805 34.4589ZM23.8192 34.4589V25.1892C23.8192 20.3304 24.4042 16.3444 25.5742 13.2312C26.7795 10.0766 28.8529 7.32743 31.5545 5.3016C34.3692 3.12652 37.6527 1.63866 41.1436 0.956543V8.35584C38.6282 9.8083 37.2005 11.7472 36.8607 14.1726H41.1436V34.4425L23.8192 34.4589Z" fill="#D24648"/>
</svg>
