<svg width="23" height="23" viewBox="0 0 23 23" fill="none" xmlns="http://www.w3.org/2000/svg">
<path d="M21.0544 17.5661C21.0544 17.9111 20.9778 18.2657 20.8148 18.6107C20.6519 18.9557 20.4411 19.2815 20.1632 19.5882C19.6936 20.1057 19.1761 20.4794 18.5915 20.719C18.0165 20.9586 17.3936 21.0832 16.7228 21.0832C15.7453 21.0832 14.7007 20.8532 13.5986 20.3836C12.4965 19.914 11.3944 19.2815 10.3019 18.4861C9.19984 17.6811 8.15525 16.7898 7.15859 15.8028C6.1715 14.8061 5.28025 13.7615 4.48484 12.669C3.699 11.5765 3.0665 10.484 2.6065 9.40109C2.1465 8.30859 1.9165 7.264 1.9165 6.26734C1.9165 5.61567 2.0315 4.99275 2.2615 4.41775C2.4915 3.83317 2.85567 3.2965 3.36359 2.81734C3.97692 2.21359 4.64775 1.9165 5.35692 1.9165C5.62525 1.9165 5.89359 1.974 6.13317 2.089C6.38234 2.204 6.60275 2.3765 6.77525 2.62567L8.99859 5.75942C9.17109 5.999 9.29567 6.21942 9.38192 6.43025C9.46817 6.6315 9.51609 6.83275 9.51609 7.01484C9.51609 7.24484 9.449 7.47484 9.31484 7.69525C9.19025 7.91567 9.00817 8.14567 8.77817 8.37567L8.04984 9.13275C7.94442 9.23817 7.8965 9.36275 7.8965 9.51609C7.8965 9.59275 7.90609 9.65984 7.92525 9.7365C7.954 9.81317 7.98275 9.87067 8.00192 9.92817C8.17442 10.2444 8.4715 10.6565 8.89317 11.1548C9.32442 11.6532 9.78442 12.1611 10.2828 12.669C10.8003 13.1769 11.2986 13.6465 11.8065 14.0778C12.3048 14.4994 12.7169 14.7869 13.0428 14.9594C13.0907 14.9786 13.1482 15.0073 13.2153 15.0361C13.2919 15.0648 13.3686 15.0744 13.4548 15.0744C13.6178 15.0744 13.7423 15.0169 13.8478 14.9115L14.5761 14.1928C14.8157 13.9532 15.0457 13.7711 15.2661 13.6561C15.4865 13.5219 15.7069 13.4548 15.9465 13.4548C16.1286 13.4548 16.3203 13.4932 16.5311 13.5794C16.7419 13.6657 16.9623 13.7903 17.2019 13.9532L20.374 16.2053C20.6232 16.3778 20.7957 16.579 20.9011 16.8186C20.9969 17.0582 21.0544 17.2978 21.0544 17.5661Z" stroke="white" stroke-width="1.5" stroke-miterlimit="10"/>
<path opacity="0.4" d="M17.7292 8.62516C17.7292 8.05016 17.2787 7.1685 16.6079 6.44975C15.9946 5.7885 15.18 5.271 14.375 5.271" stroke="white" stroke-width="1.5" stroke-linecap="round" stroke-linejoin="round"/>
<path opacity="0.4" d="M21.0833 8.62484C21.0833 4.91609 18.0838 1.9165 14.375 1.9165" stroke="white" stroke-width="1.5" stroke-linecap="round" stroke-linejoin="round"/>
</svg>
