<svg width="23" height="23" viewBox="0 0 23 23" fill="none" xmlns="http://www.w3.org/2000/svg">
<path d="M21.0544 17.5662C21.0544 17.9112 20.9778 18.2658 20.8148 18.6108C20.6519 18.9558 20.4411 19.2817 20.1632 19.5883C19.6936 20.1058 19.1761 20.4796 18.5915 20.7192C18.0165 20.9587 17.3936 21.0833 16.7228 21.0833C15.7453 21.0833 14.7007 20.8533 13.5986 20.3837C12.4965 19.9142 11.3944 19.2817 10.3019 18.4862C9.19984 17.6812 8.15525 16.79 7.15859 15.8029C6.1715 14.8062 5.28025 13.7617 4.48484 12.6692C3.699 11.5767 3.0665 10.4842 2.6065 9.40124C2.1465 8.30874 1.9165 7.26416 1.9165 6.26749C1.9165 5.61582 2.0315 4.99291 2.2615 4.41791C2.4915 3.83332 2.85567 3.29666 3.36359 2.81749C3.97692 2.21374 4.64775 1.91666 5.35692 1.91666C5.62525 1.91666 5.89359 1.97416 6.13317 2.08916C6.38234 2.20416 6.60275 2.37666 6.77525 2.62582L8.99859 5.75957C9.17109 5.99916 9.29567 6.21957 9.38192 6.43041C9.46817 6.63166 9.51609 6.83291 9.51609 7.01499C9.51609 7.24499 9.449 7.47499 9.31484 7.69541C9.19025 7.91582 9.00817 8.14582 8.77817 8.37582L8.04984 9.13291C7.94442 9.23832 7.8965 9.36291 7.8965 9.51624C7.8965 9.59291 7.90609 9.65999 7.92525 9.73666C7.954 9.81332 7.98275 9.87082 8.00192 9.92832C8.17442 10.2446 8.4715 10.6567 8.89317 11.155C9.32442 11.6533 9.78442 12.1612 10.2828 12.6692C10.8003 13.1771 11.2986 13.6467 11.8065 14.0779C12.3048 14.4996 12.7169 14.7871 13.0428 14.9596C13.0907 14.9787 13.1482 15.0075 13.2153 15.0362C13.2919 15.065 13.3686 15.0746 13.4548 15.0746C13.6178 15.0746 13.7423 15.0171 13.8478 14.9117L14.5761 14.1929C14.8157 13.9533 15.0457 13.7712 15.2661 13.6562C15.4865 13.5221 15.7069 13.455 15.9465 13.455C16.1286 13.455 16.3203 13.4933 16.5311 13.5796C16.7419 13.6658 16.9623 13.7904 17.2019 13.9533L20.374 16.2054C20.6232 16.3779 20.7957 16.5792 20.9011 16.8187C20.9969 17.0583 21.0544 17.2979 21.0544 17.5662Z" stroke="#292D32" stroke-width="1.5" stroke-miterlimit="10"/>
</svg>
