<svg width="23" height="23" viewBox="0 0 23 23" fill="none" xmlns="http://www.w3.org/2000/svg">
<path d="M8.62484 21.0832H14.3748C19.1665 21.0832 21.0832 19.1665 21.0832 14.3748V8.62484C21.0832 3.83317 19.1665 1.9165 14.3748 1.9165H8.62484C3.83317 1.9165 1.9165 3.83317 1.9165 8.62484V14.3748C1.9165 19.1665 3.83317 21.0832 8.62484 21.0832Z" stroke="white" stroke-width="1.5" stroke-linecap="round" stroke-linejoin="round"/>
<path opacity="0.4" d="M1.9165 12.4583H5.51984C6.24817 12.4583 6.90942 12.8704 7.23525 13.5221L8.08817 15.2375C8.62484 16.2916 9.58317 16.2916 9.81317 16.2916H13.1961C13.9244 16.2916 14.5857 15.8796 14.9115 15.2279L15.7644 13.5125C16.0903 12.8608 16.7515 12.4487 17.4798 12.4487H21.064" stroke="white" stroke-width="1.5" stroke-linecap="round" stroke-linejoin="round"/>
<path opacity="0.4" d="M9.90918 6.7085H13.1004" stroke="white" stroke-width="1.5" stroke-linecap="round" stroke-linejoin="round"/>
<path opacity="0.4" d="M9.104 9.5835H13.8957" stroke="white" stroke-width="1.5" stroke-linecap="round" stroke-linejoin="round"/>
</svg>
