<svg width="23" height="23" viewBox="0 0 23 23" fill="none" xmlns="http://www.w3.org/2000/svg">
<path d="M11.4998 21.0832C16.7926 21.0832 21.0832 16.7926 21.0832 11.4998C21.0832 6.20711 16.7926 1.9165 11.4998 1.9165C6.20711 1.9165 1.9165 6.20711 1.9165 11.4998C1.9165 16.7926 6.20711 21.0832 11.4998 21.0832Z" stroke="white" stroke-width="1.5" stroke-linecap="round" stroke-linejoin="round"/>
<g opacity="0.4">
<path d="M7.66637 2.875H8.62471C6.75596 8.47167 6.75596 14.5283 8.62471 20.125H7.66637" stroke="white" stroke-width="1.5" stroke-linecap="round" stroke-linejoin="round"/>
<path d="M14.375 2.875C16.2438 8.47167 16.2438 14.5283 14.375 20.125" stroke="white" stroke-width="1.5" stroke-linecap="round" stroke-linejoin="round"/>
<path d="M2.875 15.3333V14.375C8.47167 16.2438 14.5283 16.2438 20.125 14.375V15.3333" stroke="white" stroke-width="1.5" stroke-linecap="round" stroke-linejoin="round"/>
<path d="M2.875 8.6252C8.47167 6.75645 14.5283 6.75645 20.125 8.6252" stroke="white" stroke-width="1.5" stroke-linecap="round" stroke-linejoin="round"/>
</g>
</svg>
