<svg width="15" height="12" viewBox="0 0 15 12" fill="none" xmlns="http://www.w3.org/2000/svg">
<path d="M4.71187 12C10.3725 12 13.4691 7.38209 13.4691 3.38446C13.4691 3.25524 13.4691 3.12417 13.4634 2.99494C14.0663 2.56526 14.5866 2.03329 15 1.42395C14.4369 1.66841 13.8401 1.82953 13.2291 1.90208C13.8727 1.5233 14.3547 0.927331 14.5856 0.224936C13.9809 0.577647 13.3191 0.825248 12.6291 0.956896C12.1652 0.470483 11.5513 0.148248 10.8826 0.0401061C10.2138 -0.068036 9.52755 0.0439496 8.93 0.358717C8.33246 0.673484 7.85701 1.17347 7.5773 1.78122C7.29759 2.38897 7.22923 3.07057 7.38281 3.72044C6.15913 3.66003 4.96202 3.34705 3.8691 2.80179C2.77619 2.25654 1.81189 1.49119 1.03875 0.555379C0.646256 1.22281 0.526475 2.01229 0.703731 2.76351C0.880986 3.51473 1.34199 4.17137 1.99312 4.60009C1.50519 4.58377 1.02799 4.45476 0.6 4.22349V4.26503C0.600841 4.9642 0.846851 5.64165 1.29644 6.18286C1.74604 6.72406 2.37164 7.09584 3.0675 7.23533C2.80337 7.30697 2.53053 7.34268 2.25656 7.34148C2.06342 7.34206 1.87067 7.32444 1.68094 7.28887C1.87761 7.89073 2.26057 8.41696 2.77617 8.79384C3.29177 9.17072 3.91419 9.37939 4.55625 9.3906C3.46552 10.2341 2.11819 10.6915 0.73125 10.6893C0.486863 10.6903 0.242647 10.6764 0 10.6478C1.40767 11.5313 3.04247 12.0005 4.71187 12Z" fill="#212121"/>
</svg>
