<svg width="90" height="70" viewBox="0 0 146 116" fill="none" xmlns="http://www.w3.org/2000/svg">
<g filter="url(#filter0_d_373_2344)">
<path fill-rule="evenodd" clip-rule="evenodd" d="M62.9422 70.9301V42.871C72.9032 47.5582 80.618 52.086 89.7423 56.9677C82.2167 61.1412 72.9032 65.8241 62.9422 70.9301ZM118.455 28.9159C116.737 26.6521 113.808 24.89 110.69 24.3066C101.526 22.5663 44.3549 22.5614 35.1958 24.3066C32.6955 24.7753 30.4692 25.9082 28.5567 27.6684C20.4982 35.1479 23.0233 75.258 24.9657 81.7553C25.7825 84.5676 26.8384 86.5958 28.1682 87.9271C29.8815 89.6873 32.2273 90.8993 34.9218 91.4428C42.4673 93.0035 81.3402 93.8761 110.531 91.6771C113.22 91.2084 115.601 89.9575 117.479 88.1225C124.93 80.6729 124.422 38.3102 118.455 28.9159Z" fill="#FF3538"/>
</g>
<defs>
<filter id="filter0_d_373_2344" x="0" y="-0.000488281" width="146" height="116" filterUnits="userSpaceOnUse" color-interpolation-filters="sRGB">
<feFlood flood-opacity="0" result="BackgroundImageFix"/>
<feColorMatrix in="SourceAlpha" type="matrix" values="0 0 0 0 0 0 0 0 0 0 0 0 0 0 0 0 0 0 127 0" result="hardAlpha"/>
<feOffset/>
<feGaussianBlur stdDeviation="11.5"/>
<feComposite in2="hardAlpha" operator="out"/>
<feColorMatrix type="matrix" values="0 0 0 0 0 0 0 0 0 0 0 0 0 0 0 0 0 0 0.3 0"/>
<feBlend mode="normal" in2="BackgroundImageFix" result="effect1_dropShadow_373_2344"/>
<feBlend mode="normal" in="SourceGraphic" in2="effect1_dropShadow_373_2344" result="shape"/>
</filter>
</defs>
</svg>
